<?xml version="1.0" encoding="UTF-8" standalone="no"?>
<svg
   xmlns:dc="http://purl.org/dc/elements/1.1/"
   xmlns:cc="http://creativecommons.org/ns#"
   xmlns:rdf="http://www.w3.org/1999/02/22-rdf-syntax-ns#"
   xmlns:svg="http://www.w3.org/2000/svg"
   xmlns="http://www.w3.org/2000/svg"
   viewBox="0 0 793.70135 1122.52"
   
   xml:space="preserve"
   id="svg2"
   version="1.1"><metadata
     id="metadata8"><rdf:RDF><cc:Work
         rdf:about=""><dc:format>image/svg+xml</dc:format><dc:type
           rdf:resource="http://purl.org/dc/dcmitype/StillImage" /></cc:Work></rdf:RDF></metadata><defs
     id="defs6"><clipPath
       id="clipPath24"
       clipPathUnits="userSpaceOnUse"><path
         id="path22"
         d="M 0,841.89 H 595.276 V 0 H 0 Z" /></clipPath></defs><g
     transform="matrix(1.3333333,0,0,-1.3333333,0,1122.52)"
     id="g10"><path
       id="path12"
       style="fill:#231f20;fill-opacity:1;fill-rule:evenodd;stroke:none"
       d="m 312.147,449.276 h 19.341 v -73.691 h -19.341 z" /><path
       id="path14"
       style="fill:#231f20;fill-opacity:1;fill-rule:evenodd;stroke:none"
       d="m 219.499,449.276 h 19.34 v -73.691 h -19.34 z" /><path
       id="path16"
       style="fill:#231f20;fill-opacity:1;fill-rule:evenodd;stroke:none"
       d="m 380.167,449.276 h 19.341 v -73.691 h -19.341 z" /><g
       id="g18"><g
         clip-path="url(#clipPath24)"
         id="g20"><g
           transform="translate(185.5083,383.9854)"
           id="g26"><path
             id="path28"
             style="fill:#231f20;fill-opacity:1;fill-rule:evenodd;stroke:none"
             d="m 0,0 c -6.646,-5.815 -15.349,-9.339 -24.875,-9.339 -20.872,0 -37.792,16.919 -37.792,37.792 0,20.871 16.92,37.791 37.792,37.791 9.402,0 17.959,-3.433 24.615,-9.114 L -12.811,42.997 c -3.316,2.717 -7.477,4.351 -12.064,4.351 -10.436,0 -18.896,-8.459 -18.896,-18.895 0,-10.436 8.46,-18.896 18.896,-18.896 4.721,0 9.037,1.73 12.349,4.591 z" /></g><g
           transform="translate(91.5259,427.6499)"
           id="g30"><path
             id="path32"
             style="fill:#231f20;fill-opacity:1;fill-rule:evenodd;stroke:none"
             d="M 0,0 -5.972,-18.657 H 5.972 Z m -12.297,-38.42 -4.368,-13.645 H -37.186 L 0,55.564 37.186,-52.065 H 16.664 l -4.368,13.645 z" /></g><g
           transform="translate(208.3745,455.5166)"
           id="g34"><path
             id="path36"
             style="fill:#231f20;fill-opacity:1;fill-rule:evenodd;stroke:none"
             d="M 0,0 H 30.701 L 67.117,-96.841 103.534,0 h 91.707 L 184.579,19.351 H 89.265 L 67.117,-38.523 44.971,19.351 H -53.118 L -63.779,0 h 44.441 l 0.008,-79.932 H 0.01 Z" /></g><g
           transform="translate(402.8452,412.4385)"
           id="g38"><path
             id="path40"
             style="fill:#231f20;fill-opacity:1;fill-rule:evenodd;stroke:none"
             d="M 0,0 C 0,20.872 16.919,37.791 37.79,37.791 58.662,37.791 75.581,20.872 75.581,0 75.581,-20.871 58.662,-37.789 37.79,-37.789 16.919,-37.789 0,-20.871 0,0 m 19.066,0 c 0,10.341 8.383,18.724 18.724,18.724 10.341,0 18.724,-8.383 18.724,-18.724 0,-10.34 -8.383,-18.723 -18.724,-18.723 -10.341,0 -18.724,8.383 -18.724,18.723" /></g><g
           transform="translate(516.3638,421.459)"
           id="g42"><path
             id="path44"
             style="fill:#231f20;fill-opacity:1;fill-rule:evenodd;stroke:none"
             d="m 0,0 v 27.817 h 19.341 v -76.464 l -34.748,34.056 v -31.283 h -19.34 v 75.771 z" /></g><g
           transform="translate(554.0122,386.459)"
           id="g46"><path
             id="path48"
             style="fill:#231f20;fill-opacity:1;fill-rule:evenodd;stroke:none"
             d="M 0,0 H 2.935 C 3.534,0.003 3.991,-0.131 4.305,-0.403 4.618,-0.675 4.776,-1.104 4.778,-1.689 4.776,-2.3 4.618,-2.743 4.305,-3.021 3.991,-3.298 3.534,-3.435 2.935,-3.431 H 0 Z M -2.677,-10.098 H 0 v 4.759 h 2.679 c 0.663,0.004 1.146,-0.143 1.451,-0.441 0.305,-0.297 0.498,-0.764 0.58,-1.401 0.057,-0.499 0.104,-1.01 0.143,-1.535 0.038,-0.525 0.132,-0.985 0.283,-1.382 h 2.677 c -0.157,0.236 -0.267,0.53 -0.334,0.88 -0.067,0.351 -0.11,0.706 -0.129,1.067 -0.019,0.359 -0.037,0.672 -0.049,0.936 -0.03,0.634 -0.171,1.22 -0.427,1.757 -0.255,0.535 -0.703,0.899 -1.346,1.09 v 0.035 c 0.669,0.275 1.159,0.674 1.468,1.193 0.31,0.52 0.462,1.14 0.458,1.86 C 7.442,-0.334 7.121,0.456 6.491,1.091 5.86,1.725 4.994,2.054 3.891,2.079 h -6.568 z" /></g><g
           transform="translate(545.189,382.0811)"
           id="g50"><path
             id="path52"
             style="fill:#231f20;fill-opacity:1;fill-rule:evenodd;stroke:none"
             d="m 0,0 c 0,6.005 4.867,10.873 10.873,10.873 6.006,0 10.873,-4.868 10.873,-10.873 0,-6.006 -4.867,-10.874 -10.873,-10.874 C 4.867,-10.874 0,-6.006 0,0 m 1.139,0 c 0,5.375 4.358,9.733 9.734,9.733 5.376,0 9.734,-4.358 9.734,-9.733 0,-5.377 -4.358,-9.734 -9.734,-9.734 -5.376,0 -9.734,4.357 -9.734,9.734" /></g><g
           transform="translate(356.4341,429.9165)"
           id="g54"><path
             id="path56"
             style="fill:#231f20;fill-opacity:1;fill-rule:evenodd;stroke:none"
             d="M 0,0 C 0,3.046 2.965,3.403 5.097,3.403 H 17.722 V 19.359 H -1.304 c -14.592,0 -17.306,-10.327 -17.306,-16.9 0,-17.338 19.812,-28.802 19.812,-35.58 0,-3.948 -4.453,-4.604 -6.545,-4.604 h -14.21 V -54.332 H 1.448 c 7.106,0 19.143,3.339 19.143,16.73 C 20.591,-18.406 0,-8.553 0,0" /></g></g></g></g></svg>
